# xmcd CD database file
#
# Track frame offsets:
#	150
#	19116
#	33853
#	46796
#	60655
#	74192
#	91291
#	109127
#	122034
#	136290
#	151161
#	167828
#	183528
#	197021
#	211936
#	226127
#	241869
#	258195
#	272655
#	288838
#	305141
#
# Disc length: 4281 seconds
#
# Revision: 0
# Processed by: cddbd v1.5.2PL0 Copyright (c) Steve Scherf et al.
# Submitted via: CDex 1.40Release
#
DISCID=2510b715
DTITLE=PALOMINOS - EXITOS
DYEAR=1900
DGENRE=Country
TTITLE0=01-INTRO
TTITLE1=02-TE QUIERO MAS
TTITLE2=03 - MI OBSECION
TTITLE3=04 - LA CARTA QUE NUNCA ENVIE
TTITLE4=05 - DUELE EL AMOR
TTITLE5=06 - NUNCA ME OLVIDES
TTITLE6=07 - ERES LO QUE MAS QUIERO
TTITLE7=08 - TE SEGUIRE
TTITLE8=09 - EL PALOMINO
TTITLE9=10 - UN SOLO CORAZON
TTITLE10=11 - COMO OLVIDARTE
TTITLE11=12 - CORAZON DE CRISTAL
TTITLE12=13 - UN MILLON DE LAGRIMAS
TTITLE13=14 - CUANDO TU ME QUIERES
TTITLE14=15 - ARCOIRIS DE PAPEL
TTITLE15=16 - LA LLAMADA
TTITLE16=17 - DEJAME SABER
TTITLE17=18 - TE ESTOY AMANDO
TTITLE18=19 - QUE PASA
TTITLE19=20 - PALOMA DEJAME IR
TTITLE20=21 - ACEPTAME
EXTD=ID3G: 2
EXTT0=
EXTT1=
EXTT2=
EXTT3=
EXTT4=
EXTT5=
EXTT6=
EXTT7=
EXTT8=
EXTT9=
EXTT10=
EXTT11=
EXTT12=
EXTT13=
EXTT14=
EXTT15=
EXTT16=
EXTT17=
EXTT18=
EXTT19=
EXTT20=
PLAYORDER=
